<svg xmlns="http://www.w3.org/2000/svg" width="28" height="28" fill="none"><path fill="currentColor" d="M19.5 10.5a2.1 2.1 0 0 1 2.8-.2l.2.2 3 3a8.5 8.5 0 0 1-11.8 12.2l-.2-.2-3-3a2.1 2.1 0 0 1 2.8-3.2l.2.2 3 3a4.2 4.2 0 0 0 6.2-5.8l-.2-.2-3-3a2.1 2.1 0 0 1 0-3Zm-10-1a2.1 2.1 0 0 1 2.8-.2l.2.2 6 6a2.1 2.1 0 0 1-2.8 3.1l-.2-.1-6-6a2.1 2.1 0 0 1 0-3Zm-7-7a8.5 8.5 0 0 1 11.7-.3l.3.3 3 3a2.1 2.1 0 0 1-2.8 3.1l-.2-.1-3-3a4.2 4.2 0 0 0-6.2 5.8l.2.2 3 3a2.1 2.1 0 0 1-2.9 3.1l-.1-.1-3-3a8.5 8.5 0 0 1 0-12Z"/></svg>