<svg width="28" height="28" fill="currentColor" xmlns="http://www.w3.org/2000/svg"><path d="M28 14.05c0-.1-.05-.15-.05-.2.03-2-1.79-3.3-3.78-3.3H18.8a2.67 2.67 0 0 1-2.57-3.22c.12-.55.36-1.05.6-1.63.33-.76.66-1.5.66-2.3 0-1.74-1.18-3.32-2.92-3.39L14 0a14 14 0 1 0 14 14v.05Zm-22.75 0c-.97 0-1.75-.83-1.75-1.75 0-1.02.78-1.75 1.75-1.75S7 11.28 7 12.3c0 .92-.78 1.75-1.75 1.75ZM7 17.55c.97 0 1.75.73 1.75 1.75 0 .92-.78 1.75-1.75 1.75s-1.75-.83-1.75-1.75c0-1.02.78-1.75 1.75-1.75Zm7 7c-.97 0-1.75-.83-1.75-1.75 0-1.02.78-1.75 1.75-1.75s1.75.73 1.75 1.75c0 .92-.78 1.75-1.75 1.75Zm7-7c.97 0 1.75.73 1.75 1.75 0 .92-.78 1.75-1.75 1.75s-1.75-.83-1.75-1.75c0-1.02.78-1.75 1.75-1.75Z" /></svg>