<svg width="28" height="28" fill="currentColor" xmlns="http://www.w3.org/2000/svg"><path d="M9.3 22.5s-.1-.2-.3-.2l-.3.2c0 .2.2.3.3.2.2 0 .3 0 .3-.2Zm-1.7-.2s0 .2.2.2c.2.1.3 0 .4 0 0-.2 0-.3-.2-.4-.2 0-.4 0-.4.2Zm2.5-.1c-.2 0-.3.1-.3.3 0 .1.2.2.4.1l.2-.2c0-.1-.2-.3-.3-.2ZM13.8 0C6 0 0 6.1 0 14.1c0 6.4 3.9 12 9.5 13.9.8.1 1-.4 1-.7v-3.6s-4 .9-4.8-1.7c0 0-.6-1.7-1.5-2.1 0 0-1.3-1 0-1 0 0 1.4.2 2.2 1.6 1.3 2.2 3.3 1.6 4.2 1.2a3 3 0 0 1 .9-2C8.3 19.4 5 19 5 13.4c0-1.7.4-2.4 1.3-3.5-.1-.4-.6-1.9.2-3.9 1.1-.3 3.9 1.6 3.9 1.6 1.1-.4 2.3-.5 3.5-.5 1.2 0 2.4.1 3.6.5 0 0 2.7-2 3.9-1.6.7 2 .2 3.5.1 4 1 1 1.5 1.7 1.5 3.4 0 5.5-3.3 6-6.5 6.3.5.5 1 1.3 1 2.7l-.1 4.8c0 .4.3.9 1 .7C24.2 26 28 20.5 28 14.1A14 14 0 0 0 13.8 0ZM5.5 20v.3h.3V20h-.3Zm-.6-.5c-.1.1 0 .2 0 .2h.3l-.1-.2h-.2Zm1.8 2c-.1.1-.1.3 0 .4.2.1.4.2.4 0v-.3c-.2 0-.3-.2-.4 0Zm-.7-.8v.3l.4.2v-.4c-.1-.1-.2-.2-.4-.1Z" /></svg>