<svg width="24" height="24" fill="none" xmlns="http://www.w3.org/2000/svg"><path d="M12 6a1 1 0 0 0 1-1V3a1 1 0 0 0-2 0v2a1 1 0 0 0 1 1Zm9 5h-2a1 1 0 0 0 0 2h2a1 1 0 0 0 0-2ZM6 12a1 1 0 0 0-1-1H3a1 1 0 0 0 0 2h2a1 1 0 0 0 1-1Zm.22-7a1.01 1.01 0 1 0-1.39 1.47l1.44 1.39a1 1 0 0 0 .73.28 1 1 0 0 0 .72-.31 1 1 0 0 0 0-1.41L6.22 5ZM17 8.14a1 1 0 0 0 .69-.28l1.44-1.39A1 1 0 0 0 17.78 5l-1.44 1.42a1 1 0 0 0 0 1.41c.17.18.4.3.66.31ZM12 18a1 1 0 0 0-1 1v2a1 1 0 0 0 2 0v-2a1 1 0 0 0-1-1Zm5.73-1.86a1 1 0 0 0-1.39 1.44L17.78 19a1 1 0 0 0 1.41-.02 1 1 0 0 0 0-1.42l-1.46-1.42Zm-11.46 0-1.44 1.39a1 1 0 0 0 .33 1.64 1 1 0 0 0 .39.08 1 1 0 0 0 .67-.25l1.44-1.39a1 1 0 1 0-1.39-1.44v-.03ZM12 8a4 4 0 1 0 0 8 4 4 0 0 0 0-8Z" fill="#fff"/></svg>